PathFileType	4	(X/Y/Z)	D:\TRACE\v60_Jaco2_6-2-23\JustArmDRS_Motion1_3-v60.trc
DataRate	CameraRate	NumFrames	NumMarkers	Units	OrigDataRate	OrigDataStartFrame	OrigNumFrames
100.00	100.00	      38	9	mm	100.00	5918	      6763
Frame#	Time	front left toe			Front right toe			aft left toe			aft right toe			Arm			FL body			FR body			AL Body			AR Body			
		X1	Y1	Z1	X2	Y2	Z2	X3	Y3	Z3	X4	Y4	Z4	X5	Y5	Z5	X6	Y6	Z6	X7	Y7	Z7	X8	Y8	Z8	X9	Y9	Z9	

5918	59.170	-188.10904	22.94624	-165.65631	219.76440	17.34102	-209.80658	-121.36442	16.51663	439.19711	280.69794	15.43457	427.48511	81.96452	1122.19983	-609.08698	-54.21954	582.09113	-311.14688	105.55115	578.74176	-328.97617	49.31187	586.53296	628.55225	205.90965	577.73230	612.62921	
5919	59.180	-189.32249	23.02301	-165.71657	218.50183	17.41413	-209.75717	-122.16272	16.34507	439.23364	279.85449	15.21746	427.71347	81.18362	1122.31262	-608.86133	-55.21484	582.35443	-310.81601	104.16985	578.63788	-328.47357	47.69417	586.37164	628.29126	204.40688	577.25269	613.19446	
5920	59.190	-190.29771	22.93930	-165.57739	217.73120	17.60182	-209.72374	-122.86913	16.08482	439.33002	279.22687	15.17816	427.96368	79.68697	1122.80127	-608.33502	-55.89198	582.48584	-310.70599	102.89981	578.90936	-328.39120	47.15006	586.11176	628.90002	203.82661	577.17932	613.08643	
5921	59.200	-190.94852	23.06947	-165.47678	216.79735	17.69112	-209.61519	-123.89832	15.77730	439.35144	278.00229	14.76237	427.93323	78.79793	1123.08801	-607.99084	-57.34557	582.87018	-310.50110	102.49943	579.28766	-328.43765	46.14307	585.98846	629.10699	202.28551	576.80939	613.53619	
5922	59.210	-192.16042	23.35936	-165.31961	215.69533	17.86897	-209.50191	-124.83968	15.53521	439.38937	277.28259	14.59891	428.25058	77.22092	1123.50574	-607.53235	-58.41041	582.88361	-310.52731	101.26865	579.41425	-328.11105	44.78571	585.70520	628.94446	202.02379	576.80927	613.37073	
5923	59.220	-192.75941	23.25154	-165.06494	214.59740	17.81995	-209.38139	-125.64651	15.41208	439.37320	276.10107	14.35887	428.25723	76.32191	1123.95093	-607.35272	-59.59021	583.12604	-310.17734	99.60561	579.74445	-328.16580	44.19619	585.37708	629.58130	201.85190	576.73364	613.63251	
5924	59.230	-193.72745	23.44200	-164.98991	213.84882	18.14879	-209.20390	-127.33504	15.00343	439.62094	275.14139	14.11219	428.24716	75.35717	1124.28003	-606.92523	-60.37066	583.11774	-309.98459	99.30790	579.76733	-327.75192	43.35077	585.22778	629.81714	200.04556	576.40930	613.88940	
5925	59.240	-195.08678	23.74537	-164.84764	212.87811	18.24651	-209.16934	-127.48836	14.42521	439.87320	274.46951	14.05950	428.37650	74.08540	1124.56409	-606.32159	-61.57884	583.38049	-309.61426	97.57262	579.98334	-327.26926	42.11912	585.02252	630.05200	198.23410	575.86249	614.19464	
5926	59.250	-195.75169	23.62053	-164.99811	211.90105	18.39716	-208.94257	-128.54272	14.45549	439.94257	272.96613	13.60852	428.33005	73.33860	1124.89404	-605.79211	-62.39109	583.41223	-309.54031	96.66264	579.99390	-327.07404	41.19962	584.64880	630.24792	197.76360	575.86249	614.12726	
5927	59.260	-196.62830	23.83022	-164.71268	211.16507	18.61931	-208.77051	-129.56912	14.07811	439.92639	272.36166	13.46968	428.44058	72.08615	1125.20276	-605.32404	-63.65463	583.64703	-309.16901	96.13662	580.25781	-327.24973	40.16632	584.50940	630.40570	196.81764	575.90521	614.43835	
5928	59.270	-197.93794	24.15157	-164.49022	209.71284	18.50220	-208.79794	-130.09912	13.68433	440.08804	271.59039	13.36406	428.50546	70.96960	1125.53162	-604.98853	-64.82055	583.86688	-309.10510	94.34338	580.35822	-326.78989	39.21471	584.40381	630.64160	195.20683	575.49200	615.00916	
5929	59.280	-198.34106	23.97701	-164.41292	208.93448	18.82704	-208.81923	-131.26846	13.59759	440.01093	270.38928	13.00621	428.50452	69.61231	1125.78394	-604.61310	-65.90085	584.02380	-308.81873	93.30486	580.54321	-326.17068	38.29913	583.96552	630.49121	194.02557	575.32928	615.38654	
5930	59.290	-199.50526	24.07996	-164.20892	208.06757	19.06943	-208.70094	-132.24640	13.21001	440.10571	269.45700	12.72019	428.64850	68.20670	1125.90723	-604.39825	-66.78539	584.09113	-308.64044	92.82436	581.11694	-326.72552	36.98976	583.93085	631.01611	193.24966	575.07965	614.87830	
5931	59.300	-200.90112	24.27971	-164.04048	207.06485	19.11297	-208.50386	-133.09055	12.90271	440.36542	268.42764	12.55398	428.67538	67.03303	1126.14990	-603.89838	-67.82722	584.26337	-308.33182	91.46033	581.19415	-326.55029	35.94623	583.72418	631.20410	192.40916	575.06726	615.12164	
5932	59.310	-201.35138	24.27182	-164.20297	205.96831	19.19503	-208.38028	-133.87477	12.71785	440.64923	267.37103	12.17733	428.63998	65.61139	1126.46326	-603.50714	-68.90237	584.38037	-308.10327	89.89130	581.19556	-326.11023	35.10505	583.56598	631.29846	191.25822	574.77502	615.54266	
5933	59.320	-202.59428	24.52518	-164.06575	205.47620	19.56458	-208.29140	-135.08830	12.39372	440.69037	266.86813	12.18105	428.96866	64.63087	1126.74219	-603.08887	-70.01230	584.57739	-307.97430	89.10964	581.49127	-326.55527	33.83365	583.28174	631.52655	189.99403	574.54346	615.70209	
5934	59.330	-203.64055	24.55247	-163.98688	204.04869	19.75994	-208.29114	-136.03981	12.30747	440.74692	265.26288	11.76138	429.11261	63.09898	1127.20129	-602.73065	-71.42305	584.82086	-307.86227	87.84761	581.53101	-325.42969	32.76245	583.01575	631.73798	189.34438	574.48700	615.61194	
5935	59.340	-204.36443	24.48136	-163.83832	203.22545	19.77254	-208.21835	-136.68735	11.99106	440.67987	264.63406	11.68851	429.16620	62.05589	1127.58801	-602.10266	-72.39481	584.99066	-307.68216	86.77771	581.79449	-325.11163	31.98112	582.74182	631.99408	187.89645	574.12518	616.07043	
5936	59.350	-205.40468	24.66796	-163.66635	202.15186	19.93925	-207.90144	-138.05447	11.56109	440.64413	263.88303	11.56296	429.32770	60.52900	1128.01013	-601.66229	-73.60112	585.09784	-307.42526	86.78603	582.33600	-325.69647	30.73390	582.25323	631.71075	186.74788	573.76282	616.29022	
5937	59.360	-206.54840	24.74489	-163.55482	201.23653	20.00511	-208.05516	-139.98438	12.11112	440.80215	262.51508	11.09063	429.23212	59.69780	1128.30359	-601.16272	-74.47993	585.21729	-307.17270	84.40653	582.29462	-325.09161	29.61777	582.01215	632.36774	185.97433	573.61865	616.68518	
5938	59.370	-207.48198	25.01402	-163.46317	200.12582	20.28766	-207.84407	-140.88309	11.86032	440.78015	261.71368	10.94632	429.37177	58.26651	1128.78455	-600.53320	-75.79424	585.46948	-307.00165	84.01858	582.49646	-325.12906	28.50764	581.68121	632.54565	185.21559	573.36841	616.36969	
5939	59.380	-208.21353	25.09685	-163.51730	199.48077	20.52081	-207.78772	-142.00711	11.45060	441.10114	260.74207	10.68961	429.51294	57.07962	1129.11890	-600.07953	-77.14629	585.75189	-307.05154	82.50794	582.65759	-324.89490	27.45214	581.17090	632.27277	183.94731	572.96826	616.73883	
5940	59.390	-209.63910	25.32790	-163.26483	198.18665	20.62713	-207.64995	-142.88763	11.04163	441.19122	259.84097	10.46806	429.44720	56.02375	1129.39111	-599.59991	-78.19858	585.94836	-306.72513	81.21253	582.60767	-324.35663	26.29924	580.99432	632.88800	182.57719	572.57678	617.14978	
5941	59.400	-210.33411	25.37354	-162.99002	197.28001	20.50170	-207.55569	-143.83847	10.86007	441.32382	258.49142	10.29502	429.65567	54.55330	1129.81348	-599.09381	-79.18129	586.00238	-306.46359	80.48321	582.96423	-324.53546	25.26994	580.56073	633.06122	181.45059	572.39343	617.45667	
5942	59.410	-211.01701	25.28459	-163.12279	196.31053	20.74271	-207.42696	-145.07147	10.61711	441.22153	257.48151	9.73979	429.61823	53.32106	1130.11377	-598.85596	-80.20656	585.96521	-306.21152	79.34447	583.29999	-324.24274	24.04618	580.13983	633.27472	180.28621	571.90906	617.81555	
5943	59.420	-212.42610	25.71775	-162.77011	195.17046	20.91708	-207.39230	-145.73093	10.51731	441.35760	256.80475	9.46342	429.69278	51.86423	1130.31848	-598.30579	-81.25986	586.11816	-306.01062	77.79460	583.11975	-323.40836	22.95683	579.89990	633.41467	179.61131	571.79083	617.35107	
5944	59.430	-213.40067	25.82306	-162.68466	194.39757	21.09575	-207.28148	-146.73193	10.03195	441.48318	256.03613	9.46557	429.87024	51.11999	1130.84094	-597.66132	-82.58453	586.30798	-305.96567	76.90928	583.84045	-324.11328	21.69766	579.59045	633.65088	178.45918	571.57544	617.71906	
5945	59.440	-213.88098	25.79293	-162.73595	193.51228	21.25200	-206.98512	-147.63963	9.67093	441.62338	254.41632	8.95428	429.92633	49.34938	1131.10388	-597.19049	-83.82673	586.43018	-305.74786	75.93227	583.82581	-323.74371	20.66346	579.40118	633.84235	176.86363	571.16766	617.96631	
5946	59.450	-215.44490	25.97583	-162.54420	192.41325	21.27550	-206.95415	-148.67500	9.69155	441.57986	254.07674	8.97280	430.13614	48.50911	1131.41382	-596.74030	-84.68256	586.60413	-305.50946	74.33079	583.88385	-323.29929	19.56564	579.18634	634.02228	176.20409	571.03131	618.05072	
5947	59.460	-216.09135	25.93802	-162.44919	191.43488	21.56676	-206.91312	-149.79459	9.25814	441.81763	252.84235	8.74072	430.25891	47.09778	1131.60754	-596.26703	-85.81079	586.72272	-305.18695	73.64471	584.14142	-323.49426	18.37772	578.78845	633.81976	175.01231	570.92126	618.30103	
5948	59.470	-216.91541	25.87035	-162.37041	190.61679	21.78049	-206.96686	-150.76134	9.08498	441.87863	252.03293	8.51962	430.35599	45.75769	1131.97974	-595.87305	-86.91798	586.79913	-305.06976	72.64217	584.40582	-323.07782	17.31391	578.69171	634.04944	173.83565	570.62360	618.44073	
5949	59.480	-218.13803	26.27098	-162.33261	189.54437	21.88837	-206.88956	-151.65126	8.93278	441.97403	251.23439	8.42341	430.53879	44.52673	1132.12585	-595.42505	-88.09284	586.82098	-304.76819	71.27096	584.70880	-322.87115	15.71247	578.36914	634.20483	172.44029	570.38770	618.66266	
5950	59.490	-219.03876	26.50999	-162.25371	188.61436	21.92336	-206.61118	-152.54747	8.67234	442.06073	249.99211	7.96752	430.58261	43.23817	1132.47815	-595.08185	-89.37793	586.97565	-304.73700	70.33266	584.96484	-322.83569	15.07772	578.05743	634.93781	171.20679	570.24384	619.41467	
5951	59.500	-219.77386	26.25339	-162.11880	187.78558	22.23394	-206.45238	-153.39116	8.25431	442.02429	249.37991	7.81325	430.58383	41.97595	1132.85754	-594.51801	-90.57569	587.25122	-304.47961	69.68024	585.07056	-322.54120	14.08538	577.73828	634.93256	170.50652	570.14148	619.11090	
5952	59.510	-220.84825	26.24566	-162.02829	186.90337	22.58575	-206.58124	-154.07237	7.95077	442.40564	248.42279	7.63956	430.70328	40.73968	1133.39172	-594.12994	-91.45483	587.45648	-304.29199	67.44374	585.16547	-322.01929	12.82769	577.39380	635.40125	169.29767	569.62909	619.29138	
5953	59.520	-221.94502	26.52214	-161.79019	185.93484	22.68902	-206.41898	-155.18871	7.65763	442.49533	246.89297	7.16166	430.79346	39.64493	1133.59534	-593.34656	-92.54569	587.75342	-303.98447	67.21426	585.51556	-322.03534	11.59479	577.14233	635.65356	167.75137	569.31952	619.37787	
5954	59.530	-222.63287	26.56628	-161.65594	185.23277	22.72301	-206.29485	-156.28163	7.47441	442.60190	246.36671	7.05176	430.84433	38.26009	1134.10156	-593.01361	-93.54422	587.81128	-303.82877	65.46794	585.49017	-321.45071	10.49182	576.84320	635.35223	167.18628	569.20764	619.82458	
5955	59.540	-223.47656	26.73463	-161.65192	183.91557	22.82099	-206.21988	-157.23683	7.39545	442.62674	245.46544	6.86010	430.88937	36.92307	1134.45532	-592.41992	-95.17111	588.15363	-303.81949	64.93356	585.99011	-321.66827	9.07928	576.44855	635.82733	164.85960	568.07892	619.41455	
